<svg width="120" height="32" viewBox="0 0 120 32" fill="none" xmlns="http://www.w3.org/2000/svg">
<path d="M38.6328 7.99219C39.5391 7.99219 40.3672 8.11719 41.1172 8.36719C41.8672 8.61719 42.5 8.90625 43.0156 9.23438V12.4453C42.4531 12.1016 41.8516 11.7812 41.2109 11.4844C40.5703 11.1875 39.8438 11.0391 39.0312 11.0391C38.625 11.0391 38.2188 11.1016 37.8125 11.2266C37.4219 11.3516 37.0938 11.5391 36.8281 11.7891C36.5781 12.0391 36.4531 12.3594 36.4531 12.75C36.4531 13.2656 36.6797 13.6562 37.1328 13.9219C37.5859 14.1875 38.1406 14.4531 38.7969 14.7188L40.7188 15.5156C41.8125 15.9844 42.6172 16.5547 43.1328 17.2266C43.6484 17.8984 43.9062 18.6641 43.9062 19.5234C43.9062 20.4609 43.6328 21.2891 43.0859 22.0078C42.5547 22.7109 41.8359 23.2656 40.9297 23.6719C40.0391 24.0781 39.0469 24.2812 37.9531 24.2812C37.0312 24.2812 36.1484 24.125 35.3047 23.8125C34.4609 23.5 33.7266 23.1172 33.1016 22.6641V19.4531C33.7891 19.9531 34.5469 20.375 35.375 20.7188C36.2031 21.0625 37.0859 21.2344 38.0234 21.2344C38.6797 21.2344 39.2422 21.1094 39.7109 20.8594C40.1797 20.5938 40.4141 20.2031 40.4141 19.6875C40.4141 19.2812 40.2188 18.9531 39.8281 18.7031C39.4531 18.4375 39.0391 18.2188 38.5859 18.0469L36.1719 17.1094C34.9531 16.6406 34.125 16.0312 33.6875 15.2812C33.2656 14.5156 33.0547 13.6719 33.0547 12.75C33.0547 11.7969 33.3125 10.9688 33.8281 10.2656C34.3594 9.54688 35.0469 8.99219 35.8906 8.60156C36.7344 8.19531 37.6484 7.99219 38.6328 7.99219ZM50.9609 8.71875V12.1641H54.2422V14.6484H50.9609V19.7578C50.9609 20.2891 51.0781 20.7109 51.3125 21.0234C51.5625 21.3203 51.9297 21.4688 52.4141 21.4688C52.8359 21.4688 53.1953 21.4219 53.4922 21.3281C53.8047 21.2344 54.0938 21.1016 54.3594 20.9297V23.2969C54.0625 23.5938 53.6875 23.8438 53.2344 24.0469C52.7969 24.25 52.2422 24.3516 51.5703 24.3516C50.5078 24.3516 49.6406 24.0156 48.9688 23.3438C48.3125 22.6562 47.9844 21.7188 47.9844 20.5312V14.6484H45.8516V13.125C46.6016 12.8594 47.2891 12.3594 47.9141 11.625C48.5547 10.8906 49.0625 9.92188 49.4375 8.71875H50.9609ZM61.9766 11.8594C62.6172 11.8594 63.2656 12.0078 63.9219 12.3047C64.5781 12.6016 65.125 13 65.5625 13.5V12.1641H68.5391V24H65.5625V22.0078C65.2188 22.6484 64.7188 23.2031 64.0625 23.6719C63.4062 24.125 62.6406 24.3516 61.7656 24.3516C60.8125 24.3516 59.9297 24.1094 59.1172 23.625C58.3203 23.1406 57.6797 22.4375 57.1953 21.5156C56.7109 20.5938 56.4688 19.4766 56.4688 18.1641C56.4688 16.8516 56.7109 15.7266 57.1953 14.7891C57.6953 13.8516 58.3594 13.1328 59.1875 12.6328C60.0312 12.1172 60.9609 11.8594 61.9766 11.8594ZM62.5859 14.7656C61.9609 14.7656 61.4219 14.9297 60.9688 15.2578C60.5312 15.5703 60.1875 15.9844 59.9375 16.5C59.6875 17.0156 59.5625 17.5703 59.5625 18.1641C59.5625 19.0547 59.8281 19.8125 60.3594 20.4375C60.9062 21.0625 61.625 21.375 62.5156 21.375C63.0469 21.375 63.5391 21.2344 63.9922 20.9531C64.4609 20.6719 64.8359 20.2812 65.1172 19.7812C65.4141 19.2656 65.5625 18.6484 65.5625 17.9297V16.2422C65.1406 15.7891 64.6797 15.4297 64.1797 15.1641C63.6953 14.8984 63.1641 14.7656 62.5859 14.7656ZM79.6484 15.4922C79.1484 15.2109 78.625 15.0703 78.0781 15.0703C77.3906 15.0703 76.8203 15.2969 76.3672 15.75C75.9141 16.1875 75.5156 16.7344 75.1719 17.3906V24H72.1953V12.1641H75.1719V14.3906C75.5781 13.6875 76.0547 13.1016 76.6016 12.6328C77.1641 12.1641 77.7969 11.9297 78.5 11.9297C78.9219 11.9297 79.3047 12 79.6484 12.1406V15.4922ZM86.2344 8.71875V12.1641H89.5156V14.6484H86.2344V19.7578C86.2344 20.2891 86.3516 20.7109 86.5859 21.0234C86.8359 21.3203 87.2031 21.4688 87.6875 21.4688C88.1094 21.4688 88.4688 21.4219 88.7656 21.3281C89.0781 21.2344 89.3672 21.1016 89.6328 20.9297V23.2969C89.3359 23.5938 88.9609 23.8438 88.5078 24.0469C88.0703 24.25 87.5156 24.3516 86.8438 24.3516C85.7812 24.3516 84.9141 24.0156 84.2422 23.3438C83.5859 22.6562 83.2578 21.7188 83.2578 20.5312V14.6484H81.125V13.125C81.875 12.8594 82.5625 12.3594 83.1875 11.625C83.8281 10.8906 84.3359 9.92188 84.7109 8.71875H86.2344ZM103.133 12.1641V19.2188C103.133 20.2656 102.898 21.1719 102.43 21.9375C101.961 22.6875 101.32 23.2656 100.508 23.6719C99.7109 24.0781 98.8047 24.2812 97.7891 24.2812C96.7578 24.2812 95.8359 24.0781 95.0234 23.6719C94.2266 23.2656 93.5938 22.6875 93.125 21.9375C92.6719 21.1719 92.4453 20.2656 92.4453 19.2188V12.1641H95.4453L95.4688 18.6797C95.4688 19.6016 95.6797 20.2891 96.1016 20.7422C96.5234 21.1953 97.0859 21.4219 97.7891 21.4219C98.4766 21.4219 99.0312 21.1953 99.4531 20.7422C99.8906 20.2891 100.109 19.6016 100.109 18.6797V12.1641H103.133ZM113.305 11.8594C114.242 11.8594 115.109 12.1016 115.906 12.5859C116.719 13.0547 117.367 13.75 117.852 14.6719C118.352 15.5781 118.602 16.6875 118.602 18C118.602 19.3125 118.352 20.4453 117.852 21.3984C117.367 22.3516 116.703 23.0859 115.859 23.6016C115.031 24.1016 114.109 24.3516 113.094 24.3516C112.438 24.3516 111.781 24.1953 111.125 23.8828C110.484 23.5547 109.945 23.1484 109.508 22.6641V29.625H106.531V12.1641H109.508V14.1562C109.852 13.5156 110.352 12.9766 111.008 12.5391C111.664 12.0859 112.43 11.8594 113.305 11.8594ZM112.555 14.8359C112.023 14.8359 111.523 14.9766 111.055 15.2578C110.586 15.5234 110.203 15.9062 109.906 16.4062C109.625 16.9062 109.492 17.5078 109.508 18.2109V19.9219C109.93 20.3594 110.383 20.7266 110.867 21.0234C111.367 21.3047 111.906 21.4453 112.484 21.4453C113.094 21.4453 113.625 21.2812 114.078 20.9531C114.531 20.625 114.883 20.2031 115.133 19.6875C115.383 19.1562 115.508 18.5938 115.508 18C115.508 17.1094 115.234 16.3594 114.688 15.75C114.156 15.1406 113.445 14.8359 112.555 14.8359Z" fill="#232536"/>
<g clip-path="url(#clip0_571_869)">
<path d="M14.9498 13.0511C15.7723 13.8735 17.1105 13.8735 17.933 13.0511C18.3314 12.6526 18.5508 12.123 18.5508 11.5595C18.5508 10.9961 18.3314 10.4664 17.933 10.068C17.5218 9.65677 16.9816 9.45117 16.4414 9.45117C15.9013 9.45117 15.3611 9.65677 14.9499 10.068C14.5515 10.4664 14.332 10.9961 14.332 11.5595C14.332 12.123 14.5515 12.6527 14.9498 13.0511Z" fill="#232536"/>
<path d="M6.10492 10.481L4.02565 10.6416C3.44708 10.6863 2.93179 10.9895 2.61182 11.4735L0.213854 15.1003C-0.0288162 15.4673 -0.067394 15.9267 0.110589 16.329C0.288619 16.7314 0.654475 17.0118 1.08924 17.0792L2.99305 17.374C3.43841 15.0106 4.50452 12.653 6.10492 10.481Z" fill="#FFD050"/>
<path d="M10.625 25.0059L10.9199 26.9097C10.9872 27.3445 11.2677 27.7103 11.67 27.8883C11.8374 27.9624 12.0146 27.9989 12.1908 27.9989C12.4385 27.9989 12.6844 27.9268 12.8987 27.7851L16.5256 25.3871C17.0096 25.0671 17.3128 24.5518 17.3575 23.9733L17.5181 21.894C15.346 23.4945 12.9885 24.5606 10.625 25.0059Z" fill="#FFD050"/>
<path d="M9.90948 23.6869C9.97557 23.6869 10.042 23.6815 10.1084 23.6704C11.0985 23.5049 12.0529 23.226 12.9633 22.8609L5.13853 15.0361C4.77347 15.9465 4.49456 16.9009 4.329 17.8911C4.26375 18.2814 4.39467 18.679 4.67447 18.9589L9.04056 23.325C9.27287 23.5572 9.58642 23.6869 9.90948 23.6869Z" fill="#FFD050"/>
<path d="M22.0865 14.6407C24.0013 10.9388 24.0722 7.02684 23.9721 5.19216C23.9379 4.56353 23.4367 4.06234 22.808 4.02808C22.5093 4.01177 22.1552 4 21.7562 4C19.7047 4 16.4586 4.31073 13.3595 5.9137C10.8966 7.18762 7.66708 9.99264 5.76172 13.679C5.78422 13.6965 5.8062 13.7152 5.82692 13.7359L14.2644 22.1733C14.2851 22.1941 14.3037 22.216 14.3213 22.2385C18.0076 20.3331 20.8126 17.1036 22.0865 14.6407ZM13.9547 9.07371C15.3254 7.70305 17.5557 7.70291 18.9265 9.07371C19.5905 9.73769 19.9562 10.6206 19.9562 11.5596C19.9562 12.4987 19.5905 13.3815 18.9265 14.0455C18.2412 14.7308 17.3407 15.0735 16.4406 15.0736C15.5402 15.0736 14.6402 14.731 13.9547 14.0455C13.2907 13.3815 12.925 12.4987 12.925 11.5596C12.925 10.6206 13.2907 9.73769 13.9547 9.07371Z" fill="#232536"/>
<path d="M0.716821 23.7781C0.896774 23.7781 1.07673 23.7094 1.21398 23.5721L3.50959 21.2765C3.78418 21.0019 3.78418 20.5567 3.50959 20.2821C3.23504 20.0075 2.78982 20.0075 2.51523 20.2821L0.219617 22.5777C-0.0549766 22.8523 -0.0549766 23.2975 0.219617 23.5721C0.356914 23.7094 0.536867 23.7781 0.716821 23.7781Z" fill="#FFD050"/>
<path d="M5.61382 22.3854C5.33927 22.1108 4.89405 22.1108 4.61946 22.3854L0.205945 26.7989C-0.0686484 27.0735 -0.0686484 27.5187 0.205945 27.7933C0.343242 27.9306 0.523195 27.9992 0.703148 27.9992C0.883102 27.9992 1.06305 27.9306 1.2003 27.7932L5.61377 23.3797C5.88841 23.1052 5.88841 22.66 5.61382 22.3854Z" fill="#FFD050"/>
<path d="M6.72221 24.4906L4.42665 26.7862C4.15205 27.0608 4.15205 27.506 4.42665 27.7806C4.56395 27.9179 4.7439 27.9865 4.9238 27.9865C5.10371 27.9865 5.28371 27.9179 5.42096 27.7806L7.71657 25.485C7.99116 25.2104 7.99116 24.7652 7.71657 24.4906C7.44202 24.216 6.9968 24.216 6.72221 24.4906Z" fill="#FFD050"/>
</g>
<defs>
<clipPath id="clip0_571_869">
<rect width="24" height="24" fill="white" transform="translate(0 4)"/>
</clipPath>
</defs>
</svg>
